<?xml version="1.0" standalone="no"?>
<!DOCTYPE svg PUBLIC "-//W3C//DTD SVG 20010904//EN"
 "http://www.w3.org/TR/2001/REC-SVG-20010904/DTD/svg10.dtd">
<svg version="1.0" xmlns="http://www.w3.org/2000/svg"
 width="700.000000pt" height="700.000000pt" viewBox="0 0 700.000000 700.000000"
 preserveAspectRatio="xMidYMid meet">
<metadata>
Created by potrace 1.14, written by Peter Selinger 2001-2017
</metadata>
<g transform="translate(0.000000,700.000000) scale(0.100000,-0.100000)"
fill="#000000" stroke="none">
<path d="M3435 6963 c-65 -39 -89 -53 -180 -103 -33 -18 -76 -43 -95 -55 -19
-13 -136 -80 -260 -150 -124 -71 -259 -148 -300 -172 -41 -24 -82 -48 -90 -53
-8 -4 -121 -69 -250 -143 -656 -376 -936 -538 -950 -547 -8 -6 -21 -13 -29
-17 -8 -3 -89 -50 -180 -103 -91 -53 -173 -99 -181 -103 -8 -4 -36 -20 -61
-35 -25 -15 -124 -72 -220 -126 -96 -55 -176 -103 -179 -107 -4 -6 -5 -3409
-1 -3485 0 -12 9 -24 19 -28 9 -3 31 -14 47 -24 17 -10 50 -30 75 -44 25 -14
207 -119 405 -233 198 -114 375 -216 393 -226 54 -32 94 -54 157 -89 33 -19
71 -41 85 -50 14 -9 50 -31 80 -47 30 -17 96 -54 145 -83 50 -29 108 -63 130
-75 50 -27 89 -50 240 -137 66 -38 129 -74 140 -80 11 -7 117 -68 235 -136
118 -69 235 -136 260 -150 25 -14 104 -59 175 -100 72 -41 189 -109 260 -150
72 -41 145 -83 163 -93 l33 -19 67 38 c88 51 451 260 572 330 52 30 122 70
155 89 33 18 67 37 75 42 13 8 423 244 505 291 28 16 69 40 323 186 53 31 117
68 142 82 25 14 203 116 395 227 193 111 450 259 573 329 122 70 225 133 229
139 4 6 7 796 7 1754 l1 1742 -144 83 c-79 46 -165 95 -190 109 -156 89 -852
490 -881 508 -19 12 -48 28 -65 36 -16 9 -48 27 -70 40 -22 14 -49 30 -60 35
-11 6 -27 14 -35 20 -23 15 -171 100 -174 100 -2 0 -63 35 -137 78 -74 43
-154 90 -179 104 -25 14 -175 101 -335 193 -159 92 -314 180 -343 196 -28 16
-70 40 -92 54 -22 14 -41 25 -44 25 -2 0 -45 25 -95 55 -51 30 -94 55 -96 55
-3 0 -27 14 -53 30 -27 17 -51 30 -53 30 -2 -1 -31 -17 -64 -37z"/>
</g>
</svg>
